<svg xmlns="http://www.w3.org/2000/svg" width="2141" height="981"
     viewBox="0 0 2141 981" class="drone-hills">
    <style>
        .rotating {
        animation: rotation 30s infinite linear;
        }

        .rotate {
        transform: rotate(180deg);
        }

        .fan {
        transform-origin: 52.5px 60px;
        }

        .fan2 {
        transform-origin: 26.5px 30px;
        }

        .scan-light {
        animation: scanner 30s infinite ease;
        transform-origin: 235px 60px;
        }

        @keyframes rotation {
        from {
        transform: rotate(0deg);
        }
        to {
        transform: rotate(359deg);
        }
        }

        @keyframes scanner {
        0% { transform: rotate(0deg); }
        25% { transform: rotate(-30deg); }
        50% { transform: rotate(0deg); }
        75% { transform: rotate(30deg); }
        100% { transform: rotate(0deg); }
        }
    </style>
    <defs>
        <polygon id="1223-a" points=".767 .121 103.615 .121 103.615 42.236 .767 42.236 .767 .121"/>
        <linearGradient id="1223-b" x1="62.208%" x2="50%" y1="0%" y2="75.649%">
            <stop offset="0%" stop-color="#9E9E9E"/>
            <stop offset="100%" stop-color="#FFF" stop-opacity="0"/>
        </linearGradient>
    </defs>
    <g fill="none" fill-rule="evenodd" transform="translate(-11)">
        <g transform="matrix(-1 0 0 1 374 812)">
            <polygon fill="#F9F9F9" points="257.974 0 132 185 314 185 314 82.275"/>
            <polygon fill="#E6E7E8"
                     points="259.025 0 229.565 42.877 217 61.162 242.552 42.939 247.954 61.162 259.025 44.798 269.205 59.897 280.004 45.676 303 64 279.171 29.32"/>
            <polygon fill="#E0E0E0" points="192 185 374 185 283.001 53"/>
            <g fill="#D3D3D3" transform="translate(0 127)">
                <path d="M10.6847206.625475C5.15035879.625475.665936683 17.0485432.665936683 22.5955432.665936683 27.8503386 4.69021809 32.1562023 9.81610754 32.5979295L9.81610754 38.0002932 11.5523588 38.0002932 11.5523588 32.5979295C13.2954342 32.4484068 14.9127508 31.8552023 16.2853739 30.9248386 16.5524894 30.7450205 16.8088814 30.5524977 17.0574744 30.3482477 17.8003286 29.7335432 18.4515447 29.0142705 18.9916251 28.2129068 20.0727608 26.6101795 20.7035045 24.6771341 20.7035045 22.5955432 20.7035045 17.0485432 16.2161578.625475 10.6847206.625475M125.737054 11.4213864C121.061557 11.4213864 117.27222 25.2996364 117.27222 29.9866364 117.27222 34.4244318 120.673557 38.0628182 125.002974 38.4371136L125.002974 43 126.471135 43 126.471135 38.4371136C127.945145 38.3090909 129.311919 37.8087273 130.470069 37.0239773 130.69624 36.8715227 130.913637 36.7073409 131.123235 36.5343636 131.750079 36.0144545 132.299909 35.4065909 132.75615 34.7303182 133.669607 33.3777727 134.204813 31.7427955 134.204813 29.9866364 134.204813 25.2996364 130.412552 11.4213864 125.737054 11.4213864M95.0351407 31.182525C95.1764975 31.0183432 95.312005 30.8502523 95.4445879 30.677275 95.560598 30.5297068 95.6727085 30.3801841 95.7828693 30.2247977 95.909603 30.0449795 96.0285377 29.8612523 96.1445477 29.6726386 96.2430101 29.516275 96.3414724 29.3589341 96.4340854 29.1976841 96.5452211 29.000275 96.6436834 28.7989568 96.7440955 28.5966614 96.8250101 28.4334568 96.9098241 28.269275 96.9839146 28.1011841 97.0755528 27.8881386 97.1564673 27.6702068 97.236407 27.4512977 97.298799 27.2832068 97.3660653 27.1170705 97.4216332 26.9460477 97.4976734 26.710525 97.5561658 26.4710932 97.6185578 26.2316614 97.6585276 26.065525 97.7082462 25.9062295 97.7433417 25.7381386 97.802809 25.4684114 97.8379045 25.1928205 97.8778744 24.9172295 97.8993216 24.7706386 97.927593 24.6299114 97.9422161 24.4842977 97.9880352 24.0689568 98.0104573 23.6477523 98.012407 23.2236159L98.012407 23.1894114C98.012407 21.6541159 97.7306683 20.1823432 97.2110603 18.8278432 96.6943769 17.4743205 95.9437236 16.2361159 95.0088191 15.1620932 93.7785276 13.7538432 93.3037638 11.8550023 93.6995628 10.0275023 93.9101357 9.05120682 93.946206 8.01334318 93.7687789 6.941275 93.1916533 3.43775227 90.2865276.682820455 86.7652814.279206818 86.4445477.243047727 86.1277136.227411364 85.8147789.227411364 81.3615528.227411364 77.7486683 3.84625227 77.7486683 8.31141136 77.7486683 8.95738864 77.8247085 9.58284318 77.9650905 10.1819114 78.3930603 11.9732523 77.7701156 13.8281159 76.571995 15.2226841 74.3921759 17.7518659 73.2340251 21.1860023 73.7302362 24.8879114 74.4662663 30.365525 78.9419146 34.7339341 84.4255829 35.3417977 84.5757136 35.3593886 84.7209698 35.3564568 84.8701256 35.3662295L84.8701256 43.0006841 86.7584573 43.0006841 86.7584573 35.3711159C86.8656935 35.3613432 86.9729296 35.364275 87.0801658 35.353525 87.2614925 35.3330023 87.435995 35.2968432 87.6173216 35.2704568 87.8571407 35.2342977 88.0959849 35.2049795 88.3309296 35.1551386 88.5210302 35.1150705 88.7043065 35.0593659 88.8924573 35.0105023 89.1098543 34.9538205 89.3272513 34.9030023 89.5358744 34.8326386 89.725 34.7749795 89.9053518 34.7007068 90.089603 34.6303432 90.2904271 34.5550932 90.4941759 34.482775 90.6911005 34.3957977 90.8714523 34.3166386 91.044005 34.2267295 91.2214322 34.1397523 91.4115327 34.0459341 91.6016332 33.9511386 91.7868593 33.8465705 91.9574623 33.751775 92.1202663 33.6462295 92.2840452 33.5436159 92.464397 33.4312295 92.6437739 33.3178659 92.8163266 33.1937523 92.9752312 33.0813659 93.1273116 32.9650705 93.279392 32.848775 93.4470704 32.7158659 93.612799 32.5839341 93.7736533 32.4451614 93.9189095 32.3190932 94.0592915 32.1891159 94.1986985 32.0571841 94.3556533 31.9086386 94.504809 31.7581386 94.6520151 31.6037295 94.7826482 31.4649568 94.9093819 31.3252068 95.0351407 31.182525M170.853591 34.3258364C170.984224 34.1782682 171.104134 34.0248364 171.225018 33.8704273 171.32738 33.7355636 171.430717 33.6016773 171.529179 33.4619273 171.644214 33.3006773 171.750475 33.1325864 171.855762 32.9644955 171.94545 32.8208364 172.035139 32.6791318 172.118003 32.5344955 172.21744 32.3566318 172.307129 32.1729045 172.397792 31.9911318 172.470908 31.8435636 172.546948 31.6959955 172.614214 31.5445182 172.697078 31.3519955 172.771169 31.1555636 172.844284 30.9552227 172.900827 30.8047227 172.961269 30.6552 173.010013 30.4998136 173.077279 30.2897 173.132847 30.0717682 173.18744 29.8548136 173.22546 29.7062682 173.270305 29.5606545 173.301501 29.4111318 173.352194 29.1658364 173.386315 28.9166318 173.422385 28.6684045 173.438958 28.5354955 173.469179 28.4074727 173.481852 28.2765182 173.519872 27.9012455 173.543269 27.5220636 173.543269 27.1389727 173.543269 27.1282227 173.545219 27.11845 173.545219 27.1096545 173.545219 25.72095 173.287852 24.3918591 172.819913 23.1692909 172.351973 21.9477 171.674435 20.8277455 170.829219 19.8573136 169.719812 18.5868591 169.289892 16.8707682 169.648646 15.2172227 169.837772 14.3415864 169.868968 13.40145 169.710063 12.4359045 169.18948 9.26856364 166.566093 6.78140455 163.387028 6.41590455 163.095541 6.38267727 162.809903 6.36997273 162.528164 6.36997273 158.503882 6.36997273 155.241953 9.63797273 155.241953 13.6702 155.241953 14.2536318 155.309219 14.8184955 155.437903 15.3599045 155.823953 16.9782682 155.262425 18.6533136 154.17739 19.9139955 152.211068 22.1988591 151.164053 25.2977909 151.614445 28.6420182 152.278335 33.58995 156.320164 37.5342227 161.270576 38.0844273 161.407058 38.0971318 161.538666 38.0951773 161.675149 38.1069045L161.675149 45.0005864 163.380204 45.0005864 163.380204 38.1088591C163.476717 38.1020182 163.574204 38.1020182 163.668767 38.0922455 163.834495 38.0756318 163.9934 38.0443591 164.154254 38.01895 164.371651 37.9876773 164.588073 37.9583591 164.800596 37.9134045 164.973149 37.8782227 165.138877 37.8283818 165.306556 37.7834273 165.50348 37.7316318 165.69748 37.6857 165.889531 37.6241318 166.057209 37.5703818 166.220988 37.50295 166.386717 37.4413818 166.569018 37.3729727 166.753269 37.3065182 166.930696 37.2302909 167.093501 37.1579727 167.250455 37.0768591 167.40936 36.9986773 167.581913 36.9117 167.752516 36.8286318 167.921169 36.7338364 168.073249 36.6468591 168.22143 36.5520636 168.370586 36.4582455 168.53339 36.3575864 168.695219 36.2549727 168.851199 36.1445409 168.992556 36.0438818 169.130988 35.9373591 169.26747 35.8308364 169.419551 35.7116091 169.569681 35.5933591 169.714938 35.4672909 169.847521 35.35295 169.975229 35.2366545 170.100013 35.1174273 170.240395 34.9825636 170.374928 34.8486773 170.508485 34.7069727 170.628395 34.5818818 170.742455 34.4558136 170.853591 34.3258364M192.0018 30.5754636C192.089539 30.4718727 192.174353 30.3663273 192.260142 30.2588273 192.331308 30.1650091 192.402473 30.0702136 192.468765 29.9744409 192.549679 29.8620545 192.624745 29.7447818 192.69786 29.6265318 192.760252 29.5278273 192.823619 29.4291227 192.878212 29.3284636 192.948403 29.2053273 193.012745 29.0773045 193.076112 28.9512364 193.124855 28.8476455 193.178473 28.7450318 193.223318 28.6404636 193.28376 28.5056 193.332504 28.3687818 193.384172 28.2300091 193.425117 28.1244636 193.465086 28.02185 193.501157 27.9133727 193.547951 27.7648273 193.585971 27.6153045 193.623991 27.4618727 193.650313 27.3612136 193.682483 27.2576227 193.701981 27.1550091 193.740001 26.9849636 193.763398 26.8119864 193.786795 26.6399864 193.801418 26.5481227 193.817991 26.4582136 193.829689 26.3653727 193.856011 26.1063955 193.869659 25.8405773 193.872584 25.5747591L193.872584 25.5542364C193.872584 24.5877136 193.693207 23.6641909 193.368574 22.8149409 193.043941 21.9627591 192.573076 21.1868045 191.984252 20.5105318 191.212152 19.6251227 190.912865 18.4318727 191.161458 17.2835773 191.295016 16.6718045 191.317438 16.0189864 191.206303 15.3466227 190.843649 13.1448273 189.01771 11.4140773 186.80572 11.1599864 186.604895 11.1375091 186.406021 11.1267591 186.209096 11.1267591 183.410232 11.1267591 181.138775 13.4008727 181.138775 16.2056455 181.138775 16.6112136 181.186544 17.0031 181.278182 17.3803273 181.544323 18.5061455 181.155348 19.6730091 180.40177 20.5486455 179.032071 22.1386682 178.302865 24.2935545 178.616775 26.6214182 179.078865 30.0623955 181.891378 32.8056 185.333659 33.1896682 185.430172 33.1994409 185.52181 33.1974864 185.615398 33.2053045L185.615398 38.0007818 186.800845 38.0007818 186.800845 33.2053045C186.868112 33.2013955 186.938303 33.2013955 187.002644 33.1945545 187.116705 33.1828273 187.228815 33.1613273 187.340926 33.1427591 187.490081 33.1202818 187.642162 33.1026909 187.790343 33.0714182 187.908303 33.0460091 188.025287 33.00985 188.141297 32.9785773 188.27778 32.94535 188.413287 32.9121227 188.54587 32.8691227 188.664805 32.8310091 188.77789 32.7860545 188.892926 32.7411 189.019659 32.6941909 189.147368 32.6492364 189.271177 32.5925545 189.384262 32.5446682 189.494423 32.4879864 189.604584 32.4332591 189.724493 32.3736455 189.843428 32.3150091 189.959438 32.2505091 190.067649 32.1889409 190.170011 32.1244409 190.273348 32.0599409 190.387408 31.9876227 190.498544 31.9162818 190.60773 31.8400545 190.707167 31.7687136 190.803679 31.6954182 190.897267 31.6221227 191.004504 31.5390545 191.10784 31.4559864 191.208252 31.3690091 191.29989 31.2878955 191.389579 31.2067818 191.476343 31.1246909 191.572855 31.0328273 191.668393 30.9380318 191.761006 30.8403045 191.84387 30.75235 191.92381 30.6653727 192.0018 30.5754636"/>
            </g>
        </g>
        <g transform="translate(115 .879)">
            <g transform="translate(1743 796)">
                <polygon fill="#E7E7E7" points="50.044 186.684 52.544 57.701 55.044 186.684"/>
                <path fill="#E7E7E7"
                      d="M58.5679,59.7207 C58.5679,63.0457 55.8719,65.7417 52.5449,65.7417 C49.2199,65.7417 46.5239,63.0457 46.5239,59.7207 C46.5239,56.3947 49.2199,53.6997 52.5449,53.6997 C55.8719,53.6997 58.5679,56.3947 58.5679,59.7207"/>
                <path stroke="#FFF"
                      d="M58.5679,59.7207 C58.5679,63.0457 55.8719,65.7417 52.5449,65.7417 C49.2199,65.7417 46.5239,63.0457 46.5239,59.7207 C46.5239,56.3947 49.2199,53.6997 52.5449,53.6997 C55.8719,53.6997 58.5679,56.3947 58.5679,59.7207 Z"/>
                <path class="rotating fan" fill="#E7E7E7"
                      d="M56.7729 26.9873C56.7729 41.7393 52.5439 53.6993 52.5439 53.6993 52.5439 53.6993 48.3179 41.7393 48.3179 26.9873 48.3179 12.2353 52.5439.2763 52.5439.2763 52.5439.2763 56.7729 12.2353 56.7729 26.9873M21.8193 72.8828C34.5953 65.5068 47.0653 63.1898 47.0653 63.1898 47.0653 63.1898 38.8223 72.8298 26.0483 80.2058 13.2723 87.5818.8013 89.9008.8013 89.9008.8013 89.9008 9.0433 80.2588 21.8193 72.8828M79.0425 80.2061C66.2665 72.8301 58.0235 63.1891 58.0235 63.1891 58.0235 63.1891 70.4955 65.5071 83.2715 72.8831 96.0475 80.2591 104.2905 89.9001 104.2905 89.9001 104.2905 89.9001 91.8185 87.5821 79.0425 80.2061"/>
            </g>
            <g transform="translate(64 796)">
                <polygon fill="#E0E0E0" points="50.044 186.684 52.544 57.701 55.044 186.684"/>
                <path fill="#E0E0E0"
                      d="M58.5679,59.7207 C58.5679,63.0457 55.8719,65.7417 52.5449,65.7417 C49.2199,65.7417 46.5239,63.0457 46.5239,59.7207 C46.5239,56.3947 49.2199,53.6997 52.5449,53.6997 C55.8719,53.6997 58.5679,56.3947 58.5679,59.7207"/>
                <path stroke="#FFF"
                      d="M58.5679,59.7207 C58.5679,63.0457 55.8719,65.7417 52.5449,65.7417 C49.2199,65.7417 46.5239,63.0457 46.5239,59.7207 C46.5239,56.3947 49.2199,53.6997 52.5449,53.6997 C55.8719,53.6997 58.5679,56.3947 58.5679,59.7207 Z"/>
                <path class="rotating fan" fill="#E0E0E0"
                      d="M56.7729 26.9873C56.7729 41.7393 52.5439 53.6993 52.5439 53.6993 52.5439 53.6993 48.3179 41.7393 48.3179 26.9873 48.3179 12.2353 52.5439.2763 52.5439.2763 52.5439.2763 56.7729 12.2353 56.7729 26.9873M21.8193 72.8828C34.5953 65.5068 47.0653 63.1898 47.0653 63.1898 47.0653 63.1898 38.8223 72.8298 26.0483 80.2058 13.2723 87.5818.8013 89.9008.8013 89.9008.8013 89.9008 9.0433 80.2588 21.8193 72.8828M79.0425 80.2061C66.2665 72.8301 58.0235 63.1891 58.0235 63.1891 58.0235 63.1891 70.4955 65.5071 83.2715 72.8831 96.0475 80.2591 104.2905 89.9001 104.2905 89.9001 104.2905 89.9001 91.8185 87.5821 79.0425 80.2061"/>
            </g>
            <g transform="translate(388 873)">
                <polygon fill="#D4D4D4" points="26 96 27.5 30 29 96"/>
                <path fill="#D4D4D4"
                      d="M30,31 C30,32.6567015 28.6569246,34 26.9995018,34 C25.3430754,34 24,32.6567015 24,31 C24,29.3428002 25.3430754,28 26.9995018,28 C28.6569246,28 30,29.3428002 30,31"/>
                <path stroke="#FFF"
                      d="M30,31 C30,32.6567015 28.6569246,34 26.9995018,34 C25.3430754,34 24,32.6567015 24,31 C24,29.3428002 25.3430754,28 26.9995018,28 C28.6569246,28 30,29.3428002 30,31 Z"/>
                <path class="rotating fan2" fill="#D4D4D4"
                      d="M29 13.4997473C29 20.9554125 26.9992904 27 26.9992904 27 26.9992904 27 25 20.9554125 25 13.4997473 25 6.04408214 26.9992904 0 26.9992904 0 26.9992904 0 29 6.04408214 29 13.4997473M10.9033374 37.0803789C17.5310393 33.214406 24 32 24 32 24 32 19.7238458 37.0526001 13.0971814 40.9185729 6.46947951 44.7845457 0 46 0 46 0 46 4.27563548 40.9463517 10.9033374 37.0803789M40.9031491 40.919097C34.275877 37.0531242 30 32 30 32 30 32 36.4695787 33.2149302 43.0968509 37.080903 49.724123 40.9468758 54 46 54 46 54 46 47.5304213 44.7850698 40.9031491 40.919097"/>
            </g>
            <g transform="translate(1817 746)">
                <polygon fill="#D4D4D4" points="49 187 51.5 58 54 187"/>
                <path fill="#D4D4D4"
                      d="M58,60 C58,63.3134031 55.3138492,66 51.9990037,66 C48.6861508,66 46,63.3134031 46,60 C46,56.6856004 48.6861508,54 51.9990037,54 C55.3138492,54 58,56.6856004 58,60"/>
                <path stroke="#FFF"
                      d="M58,60 C58,63.3134031 55.3138492,66 51.9990037,66 C48.6861508,66 46,63.3134031 46,60 C46,56.6856004 48.6861508,54 51.9990037,54 C55.3138492,54 58,56.6856004 58,60 Z"/>
                <path fill="#D4D4D4"
                      d="M55 26.499504C55 41.1346985 50.9985807 53 50.9985807 53 50.9985807 53 47 41.1346985 47 26.499504 47 11.8643094 50.9985807 0 50.9985807 0 50.9985807 0 55 11.8643094 55 26.499504M20.8980633 72.7978735C33.6011586 65.3420688 46 63 46 63 46 63 37.8040377 72.7443001 25.102931 80.2001048 12.3998357 87.6559096 0 90 0 90 0 90 8.19496801 80.2536783 20.8980633 72.7978735M77.8977025 80.2011156C65.1954309 72.7453109 57 63 57 63 57 63 69.4000259 65.3430796 82.1022975 72.7988844 94.8045691 80.2546891 103 90 103 90 103 90 90.5999741 87.6569204 77.8977025 80.2011156"/>
                <path fill="#D4D4D4"
                      d="M55,26.499504 C55,41.1346985 50.9985807,53 50.9985807,53 C50.9985807,53 47,41.1346985 47,26.499504 C47,11.8643094 50.9985807,0 50.9985807,0 C50.9985807,0 55,11.8643094 55,26.499504"/>
            </g>
            <path fill="#D4D4D4"
                  d="M1321.438,834.2852 C1321.438,836.0722 1320.04,837.5182 1318.279,837.6262 L1321.355,905.1542 L1314.797,905.1542 L1317.873,837.6262 C1316.113,837.5182 1314.715,836.0722 1314.715,834.2852 C1314.715,832.4292 1316.22,830.9242 1318.077,830.9242 C1319.933,830.9242 1321.438,832.4292 1321.438,834.2852 Z M1289.1933,851.1308 C1289.1933,851.1308 1293.7943,845.7498 1300.9253,841.6318 C1308.0573,837.5158 1315.0173,836.2218 1315.0173,836.2218 C1315.0173,836.2218 1310.4173,841.6038 1303.2853,845.7198 C1296.1543,849.8378 1289.1933,851.1308 1289.1933,851.1308 Z M1321.1355,836.2218 C1321.1355,836.2218 1328.0955,837.5158 1335.2275,841.6318 C1342.3575,845.7498 1346.9595,851.1308 1346.9595,851.1308 C1346.9595,851.1308 1339.9985,849.8378 1332.8665,845.7198 C1325.7355,841.6038 1321.1355,836.2218 1321.1355,836.2218 Z M1315.7167,816.0135 C1315.7167,807.7795 1318.0767,801.1045 1318.0767,801.1045 C1318.0767,801.1045 1320.4367,807.7795 1320.4367,816.0135 C1320.4367,824.2485 1318.0767,830.9235 1318.0767,830.9235 C1318.0767,830.9235 1315.7167,824.2485 1315.7167,816.0135 Z"/>
            <g transform="translate(1367 639)"/>
            <path fill="#E7E7E7"
                  d="M360.7529,91.0352 C319.6459,36.2362 254.1529,0.7822 180.3769,0.7822 C106.6009,0.7822 41.1079,36.2362 -0.0001,91.0352 L360.7529,91.0352 Z"
                  transform="translate(1133 889)"/>
            <path fill="#E0E0E0"
                  d="M140,35 C124.047312,13.7490167 98.6309747,0 70.000194,0 C41.3694134,0 15.9530759,13.7490167 0,35 L140,35 Z"
                  transform="translate(370 945)"/>
            <path fill="#D3D3D3"
                  d="M124,31 C109.870476,12.1777005 87.3588633,0 62.0001719,0 C36.6414805,0 14.1298672,12.1777005 0,31 L124,31 Z"
                  opacity=".243" transform="translate(449 949)"/>
            <path fill="#E0E0E0"
                  d="M92,23 C81.5168051,9.03506809 64.8146405,0 46.0001275,0 C27.1856145,0 10.4834499,9.03506809 0,23 L92,23 Z"
                  opacity=".341" transform="translate(308 957)"/>
            <path fill="#E0E0E0"
                  d="M1676.177 979.587C1649.037 943.407 1605.797 920 1557.089 920 1508.38 920 1465.14 943.407 1438 979.587 1491.58929 979.587 1531.69792 979.587 1558.3259 979.587 1584.62614 979.587 1623.90984 979.587 1676.177 979.587zM2034.177 979.587C2007.037 943.407 1963.797 920 1915.089 920 1866.38 920 1823.14 943.407 1796 979.587 1849.58929 979.587 1889.69792 979.587 1916.3259 979.587 1942.62614 979.587 1981.90984 979.587 2034.177 979.587z"
                  opacity=".801"/>
            <polygon fill="#46C0C3" points="1135.131 991 2111.343 991 2111.343 980.035 1135.131 980.035"/>
            <polygon fill="#D7D7D7" points="1213.943 980.035 1218.796 980.035 1218.796 950.148 1213.943 950.148"/>
            <path fill="#D7D7D7"
                  d="M1216.3699,965.0921 C1200.8999,965.0921 1188.3589,952.5511 1188.3589,937.0801 C1188.3589,921.6101 1200.8999,875.8031 1216.3699,875.8031 C1231.8399,875.8031 1244.3809,921.6101 1244.3809,937.0801 C1244.3809,952.5511 1231.8399,965.0921 1216.3699,965.0921 Z"/>
            <path fill="#FFF"
                  d="M1216.3699,875.8031 L1216.3699,965.0921 C1231.8399,965.0921 1244.3809,952.5511 1244.3809,937.0801 C1244.3809,921.6101 1231.8399,875.8031 1216.3699,875.8031 Z"/>
            <path fill="#E0E0E0"
                  d="M1705.3594 957.7367C1705.3594 965.3417 1711.2014 971.5747 1718.6404 972.2137L1718.6404 980.0347 1721.1604 980.0347 1721.1604 972.2137C1723.6914 971.9957 1726.0384 971.1407 1728.0304 969.7947 1728.4184 969.5327 1728.7924 969.2537 1729.1504 968.9567 1730.2284 968.0677 1731.1734 967.0277 1731.9584 965.8667 1733.5254 963.5457 1734.4414 960.7477 1734.4414 957.7367 1734.4414 949.7057 1727.9314 925.9277 1719.9004 925.9277 1711.8724 925.9277 1705.3594 949.7057 1705.3594 957.7367zM1767.043 925.9277C1759.012 925.9277 1752.502 949.7057 1752.502 957.7367 1752.502 965.3417 1758.344 971.5747 1765.783 972.2137L1765.783 980.0347 1768.303 980.0347 1768.303 972.2137C1770.834 971.9957 1773.181 971.1407 1775.173 969.7947 1775.561 969.5327 1775.935 969.2537 1776.293 968.9567 1777.371 968.0677 1778.316 967.0277 1779.101 965.8667 1780.668 963.5457 1781.584 960.7477 1781.584 957.7367 1781.584 949.7057 1775.074 925.9277 1767.043 925.9277"/>
            <polygon fill="#D4D4D4" points="1284.203 980.035 1289.056 980.035 1289.056 950.148 1284.203 950.148"/>
            <path fill="#D7D7D7"
                  d="M1286.6291,955.8469 C1271.1591,955.8469 1258.6181,943.3059 1258.6181,927.8359 C1258.6181,912.3649 1271.1591,866.5589 1286.6291,866.5589 C1302.0991,866.5589 1314.6401,912.3649 1314.6401,927.8359 C1314.6401,943.3059 1302.0991,955.8469 1286.6291,955.8469 Z"/>
            <path fill="#FFF"
                  d="M1286.6291,866.5589 L1286.6291,955.8469 C1302.0991,955.8469 1314.6401,943.3059 1314.6401,927.8359 C1314.6401,912.3649 1302.0991,866.5589 1286.6291,866.5589 Z"/>
            <path fill="#D4D4D4"
                  d="M1703.9233,964.582 C1704.1093,964.369 1704.2883,964.148 1704.4603,963.925 C1704.6113,963.729 1704.7603,963.535 1704.9023,963.333 C1705.0703,963.098 1705.2243,962.855 1705.3783,962.611 C1705.5083,962.406 1705.6373,962.2 1705.7563,961.987 C1705.9033,961.731 1706.0343,961.468 1706.1653,961.203 C1706.2703,960.989 1706.3813,960.775 1706.4773,960.556 C1706.5983,960.277 1706.7043,959.991 1706.8103,959.704 C1706.8923,959.484 1706.9793,959.268 1707.0533,959.044 C1707.1523,958.738 1707.2303,958.424 1707.3103,958.108 C1707.3653,957.894 1707.4293,957.684 1707.4753,957.466 C1707.5513,957.113 1707.5993,956.753 1707.6503,956.392 C1707.6773,956.202 1707.7163,956.017 1707.7363,955.825 C1707.7943,955.283 1707.8243,954.733 1707.8263,954.178 C1707.8263,954.164 1707.8283,954.15 1707.8283,954.135 C1707.8283,952.125 1707.4573,950.202 1706.7773,948.432 C1706.0983,946.661 1705.1143,945.043 1703.8883,943.639 C1702.2773,941.796 1701.6533,939.314 1702.1723,936.922 C1702.4503,935.649 1702.4963,934.291 1702.2643,932.891 C1701.5093,928.31 1697.6973,924.707 1693.0863,924.179 C1692.6663,924.131 1692.2513,924.111 1691.8403,924.111 C1686.0003,924.111 1681.2663,928.842 1681.2663,934.682 C1681.2663,935.523 1681.3653,936.342 1681.5513,937.126 C1682.1113,939.469 1681.2963,941.894 1679.7223,943.718 C1676.8703,947.025 1675.3483,951.512 1676.0003,956.353 C1676.9663,963.518 1682.8343,969.228 1690.0153,970.022 C1690.2133,970.045 1690.4053,970.041 1690.6033,970.056 L1690.6033,980.035 L1693.0763,980.035 L1693.0763,970.06 C1693.2163,970.049 1693.3593,970.051 1693.4963,970.036 C1693.7353,970.012 1693.9663,969.963 1694.2013,969.929 C1694.5153,969.883 1694.8293,969.843 1695.1373,969.777 C1695.3873,969.726 1695.6283,969.653 1695.8743,969.589 C1696.1563,969.516 1696.4413,969.446 1696.7183,969.357 C1696.9643,969.279 1697.2003,969.183 1697.4413,969.094 C1697.7073,968.994 1697.9713,968.898 1698.2303,968.785 C1698.4663,968.682 1698.6943,968.564 1698.9253,968.451 C1699.1733,968.327 1699.4233,968.204 1699.6673,968.067 C1699.8893,967.942 1700.1033,967.808 1700.3183,967.671 C1700.5553,967.522 1700.7893,967.374 1701.0183,967.214 C1701.2223,967.068 1701.4223,966.916 1701.6223,966.761 C1701.8443,966.59 1702.0603,966.416 1702.2713,966.233 C1702.4623,966.069 1702.6453,965.9 1702.8283,965.728 C1703.0323,965.534 1703.2303,965.338 1703.4233,965.136 C1703.5923,964.954 1703.7603,964.771 1703.9233,964.582"/>
            <g stroke="#E5E5E5" stroke-linecap="round" stroke-linejoin="round" transform="translate(1186 640)">
                <path d="M206.1851 160.7246L307.7531 160.7246M797.5176.2979L842.9466.2979M.082 208.9219L37.792 208.9219M413.7393 179.4238L451.3343 179.4238M474.8306 208.8164L440.3686 208.8164M51.8906 176.0137L82.4356 176.0137M82.436 189.4238L99.961 189.4238"/>
            </g>
            <g stroke="#E5E5E5" stroke-linecap="round" stroke-linejoin="round" transform="translate(128 712)">
                <path d="M214.1851 68.7246L315.7531 68.7246M.3652.7188L45.7922.7188M8.082 116.9219L45.792 116.9219M421.7393 87.4238L459.3343 87.4238M482.8306 116.8164L448.3686 116.8164M59.8906 84.0137L90.4356 84.0137M90.436 97.4238L107.961 97.4238"/>
            </g>
            <g stroke="#E5E5E5" stroke-linecap="round" stroke-linejoin="round" transform="translate(1064)">
                <path d="M216.701964 160.7246L319.463477 160.7246M.369491422 92.7188L46.3302987 92.7188M814.983142.2979L860.945973.2979M8.17697062 208.9219L46.3300964 208.9219M426.695108 179.4238L464.731883 179.4238M488.504285 208.8164L453.637326 208.8164"/>
            </g>
            <g stroke="#E5E5E5" stroke-linecap="round" stroke-linejoin="round" transform="translate(0 72)">
                <path d="M217.289232 68.7246L320.329232 68.7246M.370492754.7188L46.4558551.7188M8.19913043 116.9219L46.4556522 116.9219M427.851464 87.4238L465.991319 87.4238M489.828145 116.8164L454.866696 116.8164M60.7585797 84.0137L91.7462609 84.0137M91.7466667 97.4238L109.525652 97.4238"/>
            </g>
        </g>
        <g opacity=".897" transform="translate(144 441)">
            <path fill="#E7E7E7"
                  d="M292.85716,53.6140744 C286.823002,52.5155728 280.794204,51.3899254 274.754685,50.3258086 C263.301041,48.3061582 251.84025,46.3389898 240.39018,44.3139103 C235.669349,43.4778185 231.17366,41.8671654 226.690479,40.1768846 C216.090944,36.1810172 205.759436,31.4956456 195.081281,27.6988477 C190.199634,25.9651335 185.527048,23.6360206 180.641828,21.9149745 C178.172415,21.0444979 178.251036,19.3867921 178.585175,17.5716404 C178.963985,15.5212248 179.635837,13.5232911 180.264804,11.5289769 C180.404178,11.0837851 180.563207,10.3598961 181.3923,10.5607753 C182.503715,10.8322337 183.132682,11.5271671 183.10588,12.6781507 C183.068356,14.3666218 183.631211,15.7257234 184.856983,16.8948042 C185.727174,17.7254668 186.802852,18.1616099 187.84994,18.4384975 C195.129526,20.3549937 202.439488,22.1375704 209.996034,22.5628551 C214.204041,22.7981191 218.215497,21.9909828 222.139397,20.4907228 C236.151796,15.1339441 250.362534,20.6499784 257.497385,30.116637 C261.310502,35.1766212 266.061709,38.895601 271.804612,41.1052722 C278.122878,43.5393491 284.662712,45.3888855 291.097123,47.5171192 C292.053082,47.8338206 292.748163,47.5786498 293.373557,46.8457121 C294.165127,45.9155147 294.996008,45.0160826 295.789364,44.0858853 C296.371874,43.4018101 297.059808,43.115874 297.87282,43.5610657 C298.712635,44.0189255 298.151567,44.7247173 298.026488,45.2857313 C297.620875,47.1171705 297.093758,48.9196541 296.691719,50.7510934 C296.22714,52.8630396 295.142528,53.9850675 292.85716,53.6140744 Z M255.478677,76.3473275 C255.478677,74.7547105 255.476881,73.1620936 255.476881,71.5694766 C255.158884,70.8540572 255.568507,70.0361783 255.158884,69.3333416 C254.433061,63.577631 252.411896,58.2605192 249.576875,53.250786 C248.816916,51.9080266 248.042586,50.4448322 245.823795,51.332815 C237.175004,54.7948696 230.437787,53.0332842 224.616831,45.9689672 C222.615428,43.5386984 222.534581,43.4020857 219.86844,45.0000953 C212.601228,49.3573228 206.361666,54.7697041 202.630146,62.6159492 C202.21154,63.4967419 201.97439,64.7388393 200.533523,64.275075 C199.036963,63.7915378 199.43401,62.5242748 199.737633,61.5751758 C201.390498,56.4306274 203.977589,51.7714138 207.373147,47.5723695 C209.856036,44.5003802 212.439534,41.5092801 214.879306,38.4049353 C216.122547,36.8266986 217.216671,36.3323761 219.191125,37.4396584 C229.756879,43.3679325 241.269436,46.0264884 253.243718,47.0169308 C257.036322,47.3279045 256.977034,47.3908183 257.629197,51.108123 C258.813151,57.8380982 259.501245,64.6022266 259.397043,71.4418515 C258.991013,72.311859 259.427585,73.2825285 259.079046,74.1615236 C258.764643,75.6570737 258.552645,77.1849794 258.103497,78.6373886 C257.618418,80.2066376 256.671614,80.3953789 255.469694,79.333035 C255.284645,78.3372 255.270273,77.341365 255.478677,76.3473275 Z M260.790527,27.6866648 C266.549354,26.8931039 272.290747,25.8684611 278.340741,26.5258805 C277.904862,27.5146967 277.223148,27.9535735 276.525742,28.3584149 C273.74135,29.9795719 270.927318,31.5469888 268.172566,33.2200945 C266.938158,33.968872 266.005378,33.8004866 265.016805,32.7955484 C263.540049,31.2908281 261.983091,29.8685092 260.459259,28.4121549 C260.569101,28.1703249 260.680686,27.9284948 260.790527,27.6866648 Z M223.644444,16.9800438 C220.611199,17.6957534 218.070734,18.3031298 215.522415,18.8909707 C214.752815,19.0685661 214.042113,18.8199325 213.665166,18.2409714 C211.399558,14.7689807 208.702031,11.5136564 207.123566,7.69357864 C206.968468,7.31530036 206.587594,6.87131178 207.001844,6.5090171 C207.516219,6.06325256 208.111088,6.49836137 208.488035,6.72035566 C213.659277,9.76434138 218.390746,13.3304577 223.644444,16.9800438 Z M192.517094,8.28648205 C185.910883,7.5744954 179.551106,5.99689156 173.485291,3.42647107 C172.316487,2.92923677 171.202249,2.29654329 170,1.05263158 C174.099618,1.37310817 177.745092,1.82904394 181.374723,2.60215242 C186.24181,3.63957148 190.881824,5.18909232 195.284204,7.38287022 C195.701383,7.59101481 196.372038,7.54476046 196.289306,8.25674711 C195.034249,8.49793052 193.775672,8.44341646 192.517094,8.28648205 Z M286.755556,34.7368421 C295.825342,34.7516815 304.129828,37.5748705 312,42.0285346 C305.39599,42.7130003 291.540004,38.6989523 286.755556,34.7368421 Z M287.807407,24.2105263 C280.879615,23.9630255 274.834759,22.2952258 268.874074,19.2200684 C272.666925,17.9922702 284.694796,21.1321337 287.807407,24.2105263 Z M199.451852,0 C206.223733,0.224137272 212.610644,1.7195264 218.385185,5.25610458 C211.505871,5.38613842 205.169095,3.72136311 199.451852,0 Z"/>
            <polygon class="scan-light" fill="url(#1223-b)" points="233 58 376 480 0 394" opacity=".15"/>
        </g>
        <g fill="#FFF" stroke="#E5E5E5" stroke-linecap="round" stroke-linejoin="round" transform="translate(182 47)">
            <path d="M1570.34571 62.73365L1556.24793 62.73365C1557.23315 60.1156903 1557.79594 57.2890526 1557.79594 54.3270905 1557.79594 41.1108205 1547.08255 30.3974211 1533.86754 30.3974211 1529.25386 30.3974211 1524.95889 31.7253717 1521.30386 33.9892112 1518.78202 14.8136049 1502.41535 0 1482.553 0 1462.84621 0 1446.58957 14.5834268 1443.87043 33.5364433 1440.38108 31.5495763 1436.35423 30.3974211 1432.05041 30.3974211 1418.8354 30.3974211 1408.122 41.1108205 1408.122 54.3270905 1408.122 57.2890526 1408.68607 60.1156903 1409.67001 62.73365L1394.76029 62.73365C1390.49061 62.73365 1387 66.2255277 1387 70.4939402 1387 74.7623528 1390.49061 78.2542305 1394.76029 78.2542305L1570.34571 78.2542305C1574.61412 78.2542305 1578.106 74.7623528 1578.106 70.4939402 1578.106 66.2255277 1574.61412 62.73365 1570.34571 62.73365zM144.97 88.603L133.823 88.603C134.602 86.533 135.047 84.298 135.047 81.956 135.047 71.506 126.576 63.035 116.127 63.035 112.479 63.035 109.083 64.085 106.193 65.875 104.199 50.713 91.258 39 75.553 39 59.971 39 47.117 50.531 44.967 65.517 42.208 63.946 39.024 63.035 35.621 63.035 25.172 63.035 16.701 71.506 16.701 81.956 16.701 84.298 17.147 86.533 17.925 88.603L6.136 88.603C2.76 88.603 0 91.364 0 94.739 0 98.114 2.76 100.875 6.136 100.875L144.97 100.875C148.345 100.875 151.106 98.114 151.106 94.739 151.106 91.364 148.345 88.603 144.97 88.603zM1085.80227 467.01808L1076.35979 467.01808C1077.01967 465.264609 1077.39662 463.371368 1077.39662 461.38749 1077.39662 452.535425 1070.22094 445.359747 1061.36973 445.359747 1058.27955 445.359747 1055.40284 446.249189 1052.95476 447.765476 1051.26567 434.921936 1040.30351 425 1027 425 1013.80068 425 1002.91222 434.767766 1001.09098 447.462219 998.753868 446.131444 996.056742 445.359747 993.174103 445.359747 984.322886 445.359747 977.147208 452.535425 977.147208 461.38749 977.147208 463.371368 977.525009 465.264609 978.184043 467.01808L968.197729 467.01808C965.337961 467.01808 963 469.356889 963 472.215809 963 475.074729 965.337961 477.413538 968.197729 477.413538L1085.80227 477.413538C1088.66119 477.413538 1091 475.074729 1091 472.215809 1091 469.356889 1088.66119 467.01808 1085.80227 467.01808z"/>
        </g>
    </g>
</svg>
